PathFileType	4	(X/Y/Z)	./001.trc	
DataRate	CameraRate	NumFrames	NumMarkers	Units	OrigDataRate	OrigDataStartFrame	OrigNumFrames	
180	180	4	0	mm	180	238	951	
Frame#	Time	LIAS			RIAS			LIPS			RIPS			LFTC			RFTC			CV7			SJN			TV2			SXS			TV7			LAH			RAH			LPH			RPH			LHGT			LCAJ			LHLE			LUA			LHM2			LUSP			LRSP			RHGT			RCAJ			RHLE			RHME			RUA			RHM2			RUSP			RRSP			LFLE			LTH			LFAL			LTAM			LSK			LFAX			LTTC			LFM5			LFM2			LFM1			LFCC			LDP1			RFLE			RFME			RTH			RFAL			RTAM			RSK			RFAX			RTTC			RFM5			RFM2			RFM1			RFCC			RDP1			LHME				
		X1	Y1	Z1	X2	Y2	Z2	X3	Y3	Z3	X4	Y4	Z4	X5	Y5	Z5	X6	Y6	Z6	X7	Y7	Z7	X8	Y8	Z8	X9	Y9	Z9	X10	Y10	Z10	X11	Y11	Z11	X12	Y12	Z12	X13	Y13	Z13	X14	Y14	Z14	X15	Y15	Z15	X16	Y16	Z16	X17	Y17	Z17	X18	Y18	Z18	X19	Y19	Z19	X20	Y20	Z20	X21	Y21	Z21	X22	Y22	Z22	X23	Y23	Z23	X24	Y24	Z24	X25	Y25	Z25	X26	Y26	Z26	X27	Y27	Z27	X28	Y28	Z28	X29	Y29	Z29	X30	Y30	Z30	X31	Y31	Z31	X32	Y32	Z32	X33	Y33	Z33	X34	Y34	Z34	X35	Y35	Z35	X36	Y36	Z36	X37	Y37	Z37	X38	Y38	Z38	X39	Y39	Z39	X40	Y40	Z40	X41	Y41	Z41	X42	Y42	Z42	X43	Y43	Z43	X44	Y44	Z44	X45	Y45	Z45	X46	Y46	Z46	X47	Y47	Z47	X48	Y48	Z48	X49	Y49	Z49	X50	Y50	Z50	X51	Y51	Z51	X52	Y52	Z52	X53	Y53	Z53	X54	Y54	Z54	X55	Y55	Z55	X56	Y56	Z56		
	
2.380000000000000000e+02	1.316667000000000032e+00	-9.908200000000000784e+01	9.262839999999999918e+02	-9.534099999999999397e+01	-2.923170000000000073e+02	9.244909999999999854e+02	-2.255999999999999943e+02	-1.358699999999999974e+01	9.817810000000000628e+02	-3.407250000000000227e+02	-1.025490000000000066e+02	9.865380000000000109e+02	-4.045840000000000032e+02	1.313500000000000156e+01	8.146079999999999472e+02	-1.112550000000000097e+02	-3.081469999999999914e+02	8.184529999999999745e+02	-3.335369999999999777e+02	-6.486200000000000898e+01	1.379170999999999822e+03	-3.696320000000000050e+02	-1.626980000000000075e+02	1.327680000000000064e+03	-2.321080000000000041e+02	-5.017400000000000659e+01	1.293319000000000187e+03	-4.032100000000000364e+02	-1.905340000000000202e+02	1.221783999999999878e+03	-1.821270000000000095e+02	-4.885199999999999676e+01	1.164952999999999975e+03	-4.129809999999999945e+02	-5.805199999999999960e+01	1.613582000000000107e+03	-2.541999999999999886e+02	-1.865039999999999907e+02	1.606038000000000011e+03	-2.989410000000000309e+02	-1.179599999999999937e+01	1.547666999999999916e+03	-3.257269999999999754e+02	-1.391890000000000214e+02	1.550551999999999907e+03	-3.901760000000000446e+02	6.890800000000000125e+01	1.271425999999999931e+03	-3.172920000000000300e+02	4.071099999999999852e+01	1.347091000000000122e+03	-1.749719999999999800e+02	1.048160000000000025e+02	1.072670999999999822e+03	-6.087100000000000222e+01	1.325349999999999966e+02	1.133067999999999984e+03	-1.518739999999999952e+02	-1.834759999999999991e+02	1.171332000000000107e+03	-4.957900000000000063e+01	-1.436959999999999980e+02	1.082100000000000136e+03	-9.070699999999999363e+01	-1.334609999999999843e+02	1.172087999999999965e+03	-8.478000000000000114e+01	-1.770670000000000073e+02	1.288561000000000149e+03	-4.711040000000000418e+02	-2.310229999999999961e+02	1.366173999999999978e+03	-3.872439999999999714e+02	-4.128190000000000168e+02	1.093654999999999973e+03	-4.190000000000000000e+02	-3.033690000000000282e+02	1.035071999999999889e+03	-4.271599999999999682e+02	-3.218199999999999932e+02	1.172665999999999940e+03	-4.829240000000000350e+02	-3.280830000000000268e+02	1.163675999999999931e+03	-1.523259999999999934e+02	-3.362080000000000268e+02	1.069004999999999882e+03	-1.862510000000000048e+02	-2.803580000000000041e+02	1.133407999999999902e+03	-2.203789999999999907e+02	9.172499999999999432e+01	4.663149999999999977e+02	-1.494850000000000136e+02	-3.879599999999999937e+01	5.467070000000001073e+02	-8.574299999999999500e+01	1.436689999999999827e+02	1.158810000000000002e+02	-1.402110000000000127e+02	4.048999999999999488e+01	1.122510000000000048e+02	-1.710720000000000027e+02	5.764500000000000313e+01	2.888809999999999718e+02	-1.111760000000000019e+02	1.247219999999999942e+02	4.103609999999999900e+02	-1.703550000000000182e+02	-5.231999999999999318e+00	4.179710000000000036e+02	-1.142450000000000045e+02	1.056379999999999910e+02	6.267399999999999238e+01	-2.506400000000000006e+01	6.263700000000000045e+01	7.558599999999999852e+01	-4.044699999999999562e+01	1.852200000000000202e+01	5.949499999999999744e+01	-6.614399999999999125e+01	1.407959999999999923e+02	8.603499999999999659e+01	-2.326030000000000086e+02	3.467000000000000082e+00	5.395799999999999841e+01	-1.550300000000000011e+01	-2.474170000000000016e+02	4.545250000000000341e+02	-3.763020000000000209e+02	-4.602300000000000324e+01	4.165789999999999509e+02	-2.242729999999999961e+02	-2.940209999999999582e+02	6.567200000000000273e+02	-2.368119999999999834e+02	-1.950409999999999968e+02	9.381399999999999295e+01	-3.831329999999999814e+02	-1.197289999999999992e+02	1.005049999999999955e+02	-2.965519999999999641e+02	-2.146200000000000045e+02	1.752369999999999948e+02	-3.110609999999999786e+02	-2.322170000000000130e+02	4.038349999999999795e+02	-3.972709999999999582e+02	-2.416290000000000191e+02	3.997319999999999709e+02	-2.879879999999999995e+02	-2.683530000000000086e+02	5.675199999999999534e+01	-2.987400000000000091e+02	-2.462630000000000052e+02	6.855400000000000205e+01	-2.524739999999999895e+02	-2.201569999999999823e+02	5.957400000000000517e+01	-2.172920000000000016e+02	-1.058589999999999947e+02	6.516599999999999682e+01	-4.139610000000000127e+02	-2.472800000000000011e+02	5.343400000000000460e+01	-1.722690000000000055e+02	-1.061260000000000048e+02	4.461339999999999577e+02	-2.847299999999999613e+02
2.390000000000000000e+02	1.322222000000000008e+00	-9.908400000000000318e+01	9.262909999999999400e+02	-9.531000000000000227e+01	-2.923180000000000405e+02	9.244850000000000136e+02	-2.255939999999999941e+02	-1.359399999999999942e+01	9.817839999999999918e+02	-3.407119999999999891e+02	-1.025540000000000020e+02	9.865289999999999964e+02	-4.045759999999999650e+02	1.313100000000000023e+01	8.145980000000000700e+02	-1.112469999999999999e+02	-3.081589999999999918e+02	8.184540000000000646e+02	-3.335279999999999632e+02	-6.488299999999999557e+01	1.379180000000000064e+03	-3.696820000000000164e+02	-1.628300000000000125e+02	1.327650999999999840e+03	-2.320449999999999875e+02	-5.019899999999999807e+01	1.293323999999999842e+03	-4.032390000000000327e+02	-1.905689999999999884e+02	1.221780999999999949e+03	-1.821160000000000139e+02	-4.887299999999999756e+01	1.164949999999999818e+03	-4.129860000000000468e+02	-5.812299999999999756e+01	1.613555000000000064e+03	-2.543380000000000223e+02	-1.866910000000000025e+02	1.605977999999999838e+03	-2.987590000000000146e+02	-1.205099999999999838e+01	1.547579999999999927e+03	-3.259139999999999873e+02	-1.396050000000000182e+02	1.550410000000000082e+03	-3.900469999999999686e+02	6.892900000000000205e+01	1.271435000000000173e+03	-3.173240000000000123e+02	4.068399999999999750e+01	1.347091000000000122e+03	-1.750180000000000007e+02	1.048010000000000019e+02	1.072685000000000173e+03	-6.091100000000000136e+01	1.324829999999999757e+02	1.133028999999999996e+03	-1.519499999999999886e+02	-1.835949999999999989e+02	1.171469000000000051e+03	-4.949499999999999744e+01	-1.436919999999999789e+02	1.082217999999999847e+03	-9.046600000000000819e+01	-1.334900000000000091e+02	1.172210000000000036e+03	-8.463299999999999557e+01	-1.770939999999999941e+02	1.288557000000000016e+03	-4.711419999999999959e+02	-2.310520000000000209e+02	1.366153000000000020e+03	-3.872590000000000146e+02	-4.128109999999999786e+02	1.093601999999999862e+03	-4.189789999999999850e+02	-3.033310000000000173e+02	1.035019000000000005e+03	-4.271309999999999718e+02	-3.218159999999999741e+02	1.172605999999999995e+03	-4.829220000000000255e+02	-3.281700000000000159e+02	1.163831000000000131e+03	-1.523960000000000150e+02	-3.363290000000000077e+02	1.069080999999999904e+03	-1.861920000000000073e+02	-2.798499999999999659e+02	1.132821000000000140e+03	-2.214550000000000125e+02	9.172199999999999420e+01	4.663079999999999927e+02	-1.494770000000000039e+02	-3.879800000000000182e+01	5.467010000000000218e+02	-8.572700000000000387e+01	1.436719999999999970e+02	1.158850000000000051e+02	-1.402009999999999934e+02	4.048999999999999488e+01	1.122450000000000045e+02	-1.710730000000000075e+02	5.765200000000000102e+01	2.888770000000000095e+02	-1.111800000000000068e+02	1.247179999999999893e+02	4.103559999999999945e+02	-1.703509999999999991e+02	-5.224999999999999645e+00	4.179619999999999891e+02	-1.142459999999999951e+02	1.056580000000000013e+02	6.267200000000000415e+01	-2.507699999999999818e+01	6.263599999999999568e+01	7.558400000000000318e+01	-4.044899999999999807e+01	1.851999999999999957e+01	5.950000000000000000e+01	-6.614600000000000080e+01	1.407969999999999970e+02	8.604199999999998738e+01	-2.326050000000000182e+02	3.459999999999999964e+00	5.395199999999999818e+01	-1.549200000000000088e+01	-2.474180000000000064e+02	4.545240000000000009e+02	-3.762809999999999491e+02	-4.602500000000000568e+01	4.165659999999999741e+02	-2.242690000000000055e+02	-2.940160000000000196e+02	6.567229999999999563e+02	-2.368039999999999736e+02	-1.950459999999999923e+02	9.381000000000000227e+01	-3.831390000000000100e+02	-1.197339999999999947e+02	1.004969999999999999e+02	-2.965579999999999927e+02	-2.146220000000000141e+02	1.752430000000000234e+02	-3.110480000000000018e+02	-2.322190000000000225e+02	4.038369999999999891e+02	-3.972490000000000236e+02	-2.416320000000000050e+02	3.997370000000000232e+02	-2.879850000000000136e+02	-2.683550000000000182e+02	5.675100000000000477e+01	-2.987440000000000282e+02	-2.462680000000000007e+02	6.855100000000000193e+01	-2.524749999999999943e+02	-2.201480000000000246e+02	5.957600000000000051e+01	-2.172910000000000252e+02	-1.058589999999999947e+02	6.517000000000000171e+01	-4.139739999999999895e+02	-2.472820000000000107e+02	5.343699999999999761e+01	-1.722700000000000102e+02	-1.061140000000000043e+02	4.461419999999999959e+02	-2.847100000000000364e+02
2.400000000000000000e+02	1.327777999999999903e+00	-9.909300000000000352e+01	9.263000000000000682e+02	-9.529200000000000159e+01	-2.923190000000000168e+02	9.244780000000000655e+02	-2.255829999999999984e+02	-1.360299999999999976e+01	9.817830000000000155e+02	-3.406930000000000405e+02	-1.025689999999999884e+02	9.865289999999999964e+02	-4.045570000000000164e+02	1.313799999999999990e+01	8.146050000000000182e+02	-1.112159999999999940e+02	-3.081659999999999968e+02	8.184599999999999227e+02	-3.335080000000000382e+02	-6.489499999999999602e+01	1.379189000000000078e+03	-3.697369999999999663e+02	-1.629730000000000132e+02	1.327631000000000085e+03	-2.319799999999999898e+02	-5.021900000000000119e+01	1.293326999999999998e+03	-4.032830000000000155e+02	-1.905940000000000225e+02	1.221786000000000058e+03	-1.821230000000000189e+02	-4.887299999999999756e+01	1.164952999999999975e+03	-4.129970000000000141e+02	-5.820000000000000284e+01	1.613526000000000067e+03	-2.544480000000000075e+02	-1.868890000000000100e+02	1.605912000000000035e+03	-2.985499999999999545e+02	-1.231499999999999950e+01	1.547481999999999971e+03	-3.260790000000000077e+02	-1.400229999999999961e+02	1.550272999999999911e+03	-3.899200000000000159e+02	6.894100000000000250e+01	1.271444999999999936e+03	-3.173860000000000241e+02	4.067799999999999727e+01	1.347083000000000084e+03	-1.750819999999999936e+02	1.047789999999999964e+02	1.072697999999999865e+03	-6.094999999999999574e+01	1.324190000000000111e+02	1.132968999999999824e+03	-1.520240000000000009e+02	-1.837239999999999895e+02	1.171620000000000118e+03	-4.940100000000000335e+01	-1.436779999999999973e+02	1.082365999999999985e+03	-9.022199999999999420e+01	-1.334279999999999973e+02	1.171846000000000004e+03	-8.467499999999999716e+01	-1.771299999999999955e+02	1.288551999999999907e+03	-4.711779999999999973e+02	-2.310790000000000077e+02	1.366138000000000147e+03	-3.872789999999999964e+02	-4.127880000000000109e+02	1.093549000000000206e+03	-4.189759999999999991e+02	-3.032839999999999918e+02	1.034978000000000065e+03	-4.270829999999999700e+02	-3.218159999999999741e+02	1.172544000000000096e+03	-4.829169999999999732e+02	-3.282719999999999914e+02	1.164014000000000124e+03	-1.524540000000000077e+02	-3.364590000000000032e+02	1.069164999999999964e+03	-1.861019999999999754e+02	-2.799220000000000255e+02	1.132829000000000178e+03	-2.214339999999999975e+02	9.171500000000000341e+01	4.663039999999999736e+02	-1.494729999999999848e+02	-3.879299999999999926e+01	5.467019999999999982e+02	-8.571299999999999386e+01	1.436759999999999877e+02	1.158829999999999956e+02	-1.402110000000000127e+02	4.049300000000000210e+01	1.122480000000000047e+02	-1.710709999999999980e+02	5.764600000000000080e+01	2.888689999999999714e+02	-1.111670000000000016e+02	1.247139999999999986e+02	4.103470000000000368e+02	-1.703520000000000039e+02	-5.230000000000000426e+00	4.179610000000000127e+02	-1.142259999999999991e+02	1.056389999999999958e+02	6.268099999999999739e+01	-2.506500000000000128e+01	6.263299999999999557e+01	7.557899999999999352e+01	-4.045100000000000051e+01	1.850699999999999790e+01	5.949200000000000443e+01	-6.615099999999999625e+01	1.407980000000000018e+02	8.603300000000000125e+01	-2.326050000000000182e+02	3.471000000000000085e+00	5.396000000000000085e+01	-1.549400000000000155e+01	-2.474230000000000018e+02	4.545279999999999632e+02	-3.762679999999999723e+02	-4.603000000000000114e+01	4.165639999999999645e+02	-2.242629999999999768e+02	-2.940150000000000432e+02	6.567259999999999991e+02	-2.367980000000000018e+02	-1.950379999999999825e+02	9.381100000000000705e+01	-3.831390000000000100e+02	-1.197339999999999947e+02	1.004990000000000094e+02	-2.965559999999999832e+02	-2.146270000000000095e+02	1.752410000000000139e+02	-3.110480000000000018e+02	-2.322249999999999943e+02	4.038369999999999891e+02	-3.972289999999999850e+02	-2.416329999999999814e+02	3.997289999999999850e+02	-2.879669999999999845e+02	-2.683559999999999945e+02	5.675000000000000000e+01	-2.987509999999999764e+02	-2.462630000000000052e+02	6.854699999999999704e+01	-2.524700000000000273e+02	-2.201550000000000011e+02	5.957000000000000028e+01	-2.172949999999999875e+02	-1.058619999999999948e+02	6.517100000000000648e+01	-4.139820000000000277e+02	-2.472839999999999918e+02	5.343800000000000239e+01	-1.722609999999999957e+02	-1.061280000000000001e+02	4.461319999999999482e+02	-2.846949999999999932e+02
2.410000000000000000e+02	1.333333000000000101e+00	-9.909600000000000364e+01	9.263169999999998936e+02	-9.525000000000000000e+01	-2.923170000000000073e+02	9.244780000000000655e+02	-2.255730000000000075e+02	-1.360599999999999987e+01	9.817810000000000628e+02	-3.406750000000000114e+02	-1.025640000000000072e+02	9.865380000000000109e+02	-4.045570000000000164e+02	1.312899999999999956e+01	8.145929999999999609e+02	-1.112009999999999934e+02	-3.081800000000000068e+02	8.184679999999999609e+02	-3.334909999999999854e+02	-6.489100000000000534e+01	1.379194999999999936e+03	-3.698129999999999882e+02	-1.631140000000000043e+02	1.327606999999999971e+03	-2.319209999999999923e+02	-5.022599999999999909e+01	1.293334999999999809e+03	-4.033329999999999700e+02	-1.906279999999999859e+02	1.221794000000000096e+03	-1.821260000000000048e+02	-4.887500000000000000e+01	1.164954999999999927e+03	-4.130079999999999814e+02	-5.830400000000000205e+01	1.613471999999999980e+03	-2.544930000000000234e+02	-1.871059999999999945e+02	1.605849000000000160e+03	-2.982890000000000441e+02	-1.244800000000000040e+01	1.547432000000000016e+03	-3.263309999999999604e+02	-1.404699999999999989e+02	1.550160000000000082e+03	-3.897749999999999773e+02	6.896599999999999397e+01	1.271452999999999975e+03	-3.174699999999999704e+02	4.067500000000000426e+01	1.347069999999999936e+03	-1.751479999999999961e+02	1.047639999999999958e+02	1.072713999999999942e+03	-6.098900000000000432e+01	1.323520000000000039e+02	1.132904999999999973e+03	-1.521160000000000139e+02	-1.838740000000000236e+02	1.171791999999999916e+03	-4.927999999999999403e+01	-1.436800000000000068e+02	1.082528999999999996e+03	-8.994199999999999307e+01	-1.331160000000000139e+02	1.172207000000000107e+03	-8.425399999999999068e+01	-1.771539999999999964e+02	1.288542000000000144e+03	-4.712350000000000136e+02	-2.310970000000000084e+02	1.366119000000000142e+03	-3.873050000000000068e+02	-4.127629999999999768e+02	1.093492999999999938e+03	-4.189459999999999695e+02	-3.032280000000000086e+02	1.034920000000000073e+03	-4.270129999999999768e+02	-3.218039999999999736e+02	1.172481999999999971e+03	-4.829080000000000155e+02	-3.284139999999999873e+02	1.164201000000000022e+03	-1.524710000000000036e+02	-3.366049999999999613e+02	1.069252999999999929e+03	-1.860180000000000007e+02	-2.800360000000000014e+02	1.132878999999999905e+03	-2.213970000000000198e+02	9.172499999999999432e+01	4.663010000000000446e+02	-1.494649999999999750e+02	-3.878300000000000125e+01	5.466860000000000355e+02	-8.569200000000000728e+01	1.436670000000000016e+02	1.158700000000000045e+02	-1.402119999999999891e+02	4.049799999999999756e+01	1.122450000000000045e+02	-1.710769999999999982e+02	5.763700000000000045e+01	2.888650000000000091e+02	-1.111640000000000015e+02	1.247179999999999893e+02	4.103450000000000273e+02	-1.703419999999999845e+02	-5.224999999999999645e+00	4.179530000000000314e+02	-1.142279999999999944e+02	1.056370000000000005e+02	6.268200000000000216e+01	-2.505399999999999849e+01	6.263399999999999324e+01	7.557800000000000296e+01	-4.044800000000000040e+01	1.851500000000000057e+01	5.950300000000000011e+01	-6.614799999999999613e+01	1.408069999999999879e+02	8.603099999999999170e+01	-2.326090000000000089e+02	3.465999999999999748e+00	5.395400000000000063e+01	-1.548899999999999899e+01	-2.474279999999999973e+02	4.545279999999999632e+02	-3.762509999999999764e+02	-4.603499999999999659e+01	4.165670000000000073e+02	-2.242460000000000093e+02	-2.940049999999999955e+02	6.567300000000000182e+02	-2.367899999999999920e+02	-1.950320000000000107e+02	9.381799999999999784e+01	-3.831319999999999482e+02	-1.197379999999999995e+02	1.004959999999999951e+02	-2.965380000000000109e+02	-2.146189999999999998e+02	1.752390000000000043e+02	-3.110370000000000346e+02	-2.322190000000000225e+02	4.038389999999999986e+02	-3.972149999999999750e+02	-2.416349999999999909e+02	3.997350000000000136e+02	-2.879510000000000218e+02	-2.683499999999999659e+02	5.675399999999999778e+01	-2.987389999999999759e+02	-2.462699999999999818e+02	6.854999999999999716e+01	-2.524759999999999707e+02	-2.201589999999999918e+02	5.956700000000000017e+01	-2.172939999999999827e+02	-1.058539999999999992e+02	6.517499999999999716e+01	-4.139759999999999991e+02	-2.472680000000000007e+02	5.342999999999999972e+01	-1.722700000000000102e+02	-1.061189999999999998e+02	4.461399999999999864e+02	-2.846699999999999591e+02
